#!OML:ASF E:\motion texture\Top Level 1\Subject 1\Session 1\male.ASF
:FULLY-SPECIFIED
:DEGREES
378
root -20.586 18.1138 4.03672 458.428 -80.8367 -453.068
lowerback -0.556493 1.16395 7.3021
upperback -0.176456 1.39986 3.7637
thorax 0.216044 0.656151 -0.199473
lowerneck -14.177 -5.37294 -6.75122
upperneck 26.8265 -8.86098 7.90669
head 11.783 -3.95504 2.74133
rclavicle 8.57259e-015 2.82274e-014
rhumerus -25.5406 -11.7307 -74.5986
rradius 28.6823
rwrist 7.20954
rhand -13.6725 -23.4482
rfingers 7.12502
rthumb 12.4449 -53.0577
lclavicle 8.57259e-015 2.82274e-014
lhumerus -49.0004 38.9096 62.8055
lradius 14.4979
lwrist -39.5691
lhand -14.5727 20.3865
lfingers 7.12502
lthumb 11.5768 50.0468
rfemur -3.30751 5.34361 33.7545
rtibia 13.4174
rfoot -9.35722 -13.1163
rtoes 11.1421
lfemur -31.7031 6.54063 -5.82557
ltibia 54.0768
lfoot -7.71338 5.30699
ltoes -17.0058
379
root -20.736 18.098 4.03449 459.216 -80.7321 -453.734
lowerback -0.621772 1.24755 7.42149
upperback -0.189672 1.50602 3.68811
thorax 0.250199 0.710428 -0.340602
lowerneck -14.2473 -5.39972 -6.80398
upperneck 26.6728 -8.83741 7.8621
head 11.7359 -3.94991 2.7345
rclavicle 7.60351e-015 4.35338e-014
rhumerus -25.409 -11.5716 -74.5245
rradius 29.3789
rwrist 6.78779
rhand -13.7862 -23.5508
rfingers 7.12502
rthumb 12.3352 -53.167
lclavicle 7.60351e-015 4.35338e-014
lhumerus -52.0995 41.4412 58.3796
lradius 13.6648
lwrist -42.8539
lhand -14.2595 20.2831
lfingers 7.12502
lthumb 11.8789 49.9261
rfemur -2.89289 5.54932 33.9662
rtibia 13.4582
rfoot -9.70733 -13.3132
rtoes 10.3922
lfemur -32.2357 6.54887 -5.70983
ltibia 52.2305
lfoot -7.99456 5.69562
ltoes -17.0091
380
root -20.887 18.0812 4.03376 459.825 -80.6672 -454.218
lowerback -0.693555 1.31768 7.51106
upperback -0.204387 1.59426 3.60631
thorax 0.285352 0.756011 -0.471545
lowerneck -14.3368 -5.42041 -6.85077
upperneck 26.5337 -8.80064 7.79625
head 11.6957 -3.93995 2.72057
rclavicle -6.48535e-015 -2.8625e-014
rhumerus -25.2653 -11.4081 -74.4368
rradius 30.0329
rwrist 6.37871
rhand -13.9519 -23.6916
rfingers 7.12502
rthumb 12.1755 -53.3172
lclavicle -6.48535e-015 -2.8625e-014
lhumerus -55.6851 43.8399 53.3619
lradius 12.8929
lwrist -46.5378
lhand -13.9169 20.0858
lfingers 7.12502
lthumb 12.2092 49.7094
rfemur -2.47534 5.69017 34.1192
rtibia 13.4911
rfoot -10.0536 -13.4725
rtoes 9.60259
lfemur -32.6737 6.45035 -5.62698
ltibia 50.1856
lfoot -8.18773 6.04959
ltoes -17.0388
381
root -21.038 18.0637 4.03325 460.383 -80.5989 -454.645
lowerback -0.767274 1.38138 7.59166
upperback -0.216307 1.6731 3.53612
thorax 0.323792 0.796923 -0.585424
lowerneck -14.4401 -5.43715 -6.8914
upperneck 26.4009 -8.75017 7.69979
head 11.6578 -3.92615 2.69619
rclavicle -6.33626e-015 -1.63003e-014
rhumerus -25.0899 -11.2517 -74.3326
rradius 30.6343
rwrist 6.00737
rhand -14.1129 -23.8863
rfingers 7.12502
rthumb 12.0203 -53.5211
lclavicle -6.33626e-015 -1.63003e-014
lhumerus -59.654 45.9488 47.9377
lradius 12.2232
lwrist -50.4249
lhand -13.5112 19.8504
lfingers 7.12502
lthumb 12.6003 49.4504
rfemur -2.06664 5.8235 34.2702
rtibia 13.5292
rfoot -10.3982 -13.6259
rtoes 8.83944
lfemur -33.0209 6.28391 -5.51132
ltibia 47.9543
lfoot -8.27631 6.37587
ltoes -17.1039
382
root -21.1895 18.0458 4.03343 460.874 -80.5362 -455.002
lowerback -0.851183 1.43969 7.66049
upperback -0.23045 1.74359 3.47427
thorax 0.364888 0.833622 -0.683922
lowerneck -14.5027 -5.44942 -6.94761
upperneck 26.2529 -8.68872 7.59666
head 11.6053 -3.91112 2.67455
rclavicle -6.53505e-015 3.33958e-014
rhumerus -24.9052 -11.0874 -74.2107
rradius 31.1883
rwrist 5.65108
rhand -14.2676 -24.1394
rfingers 7.12502
rthumb 11.871 -53.7829
lclavicle -6.53505e-015 3.33958e-014
lhumerus -63.8993 47.6759 42.261
lradius 11.6579
lwrist -54.4039
lhand -13.0592 19.5893
lfingers 7.12502
lthumb 13.0362 49.162
rfemur -1.67607 5.95893 34.4109
rtibia 13.6007
rfoot -10.7583 -13.7849
rtoes 8.10258
lfemur -33.2678 6.03501 -5.37255
ltibia 45.5208
lfoot -8.23053 6.67876
ltoes -17.1413
383
root -21.3415 18.0278 4.0339 461.349 -80.4608 -455.342
lowerback -0.928915 1.4943 7.72911
upperback -0.246328 1.8093 3.4267
thorax 0.40025 0.867518 -0.767687
lowerneck -14.547 -5.45904 -7.01374
upperneck 26.0979 -8.61888 7.48357
head 11.5459 -3.89498 2.65266
rclavicle 1.29583e-014 8.09054e-014
rhumerus -24.7062 -10.9229 -74.0736
rradius 31.6915
rwrist 5.31591
rhand -14.4218 -24.4322
rfingers 7.12502
rthumb 11.7223 -54.0842
lclavicle 1.29583e-014 8.09054e-014
lhumerus -68.1177 48.9257 36.7195
lradius 11.2076
lwrist -58.2475
lhand -12.575 19.3297
lfingers 7.12502
lthumb 13.5029 48.872
rfemur -1.28546 6.07782 34.5549
rtibia 13.6686
rfoot -11.1089 -13.9209
rtoes 7.4076
lfemur -33.4085 5.7173 -5.18095
ltibia 42.8846
lfoot -8.04696 6.96795
ltoes -17.1835
384
root -21.4938 18.0093 4.03471 461.814 -80.3656 -455.65
lowerback -1.02707 1.55016 7.80436
upperback -0.268508 1.87407 3.39264
thorax 0.440546 0.900711 -0.84056
lowerneck -14.5855 -5.46745 -7.07747
upperneck 25.9502 -8.54475 7.3526
head 11.4869 -3.87888 2.6247
rclavicle -8.63471e-015 5.76476e-015
rhumerus -24.4963 -10.7712 -73.9185
rradius 32.1418
rwrist 5.00943
rhand -14.5237 -24.7579
rfingers 7.12502
rthumb 11.6241 -54.4155
lclavicle -8.63471e-015 5.76476e-015
lhumerus -71.8677 49.6489 31.8573
lradius 10.8811
lwrist -61.661
lhand -12.0284 19.1225
lfingers 7.12502
lthumb 14.0297 48.629
rfemur -0.924899 6.19647 34.7119
rtibia 13.7484
rfoot -11.4513 -14.0449
rtoes 6.72105
lfemur -33.4722 5.32752 -4.92522
ltibia 40.0537
lfoot -7.72114 7.25829
ltoes -17.2962
385
root -21.6469 17.9904 4.036 462.298 -80.2511 -455.954
lowerback -1.14628 1.60976 7.88897
upperback -0.300183 1.94136 3.36867
thorax 0.483245 0.934817 -0.907481
lowerneck -14.6118 -5.4755 -7.13681
upperneck 25.8086 -8.46919 7.20541
head 11.427 -3.86398 2.59067
rclavicle 3.27995e-015 2.66371e-014
rhumerus -24.2846 -10.6374 -73.7462
rradius 32.5398
rwrist 4.73655
rhand -14.5777 -25.1094
rfingers 7.12502
rthumb 11.572 -54.7699
lclavicle 3.27995e-015 2.66371e-014
lhumerus -74.944 49.9434 27.8945
lradius 10.6537
lwrist -64.5973
lhand -11.469 18.9721
lfingers 7.12502
lthumb 14.5687 48.4405
rfemur -0.590702 6.29392 34.876
rtibia 13.8328
rfoot -11.7691 -14.1364
rtoes 5.96931
lfemur -33.4596 4.86124 -4.60175
ltibia 37.0342
lfoot -7.28711 7.55573
ltoes -17.4868
386
root -21.8013 17.9711 4.03812 462.793 -80.1268 -456.246
lowerback -1.29276 1.67142 7.97757
upperback -0.338685 2.00818 3.35091
thorax 0.534327 0.968655 -0.96928
lowerneck -14.6452 -5.48073 -7.18558
upperneck 25.6826 -8.38965 7.04123
head 11.3731 -3.84802 2.54931
rclavicle 1.66482e-015 1.19271e-015
rhumerus -24.069 -10.5158 -73.5624
rradius 32.8836
rwrist 4.49802
rhand -14.6279 -25.442
rfingers 7.12502
rthumb 11.5236 -55.1052
lclavicle 1.66482e-015 1.19271e-015
lhumerus -77.1493 49.9009 25.0644
lradius 10.5148
lwrist -66.9252
lhand -10.9111 18.8562
lfingers 7.12502
lthumb 15.1061 48.2849
rfemur -0.276663 6.35052 35.0306
rtibia 13.9098
rfoot -12.0608 -14.175
rtoes 5.15218
lfemur -33.3738 4.30427 -4.22031
ltibia 33.8474
lfoot -6.80864 7.87247
ltoes -17.7172
